<?xml version="1.0" standalone="no"?>
<!DOCTYPE svg PUBLIC "-//W3C//DTD SVG 1.1//EN" "http://www.w3.org/Graphics/SVG/1.1/DTD/svg11.dtd" >
<svg xmlns="http://www.w3.org/2000/svg">
<metadata>
Created by FontForge 20120731 at Fri Jun  9 15:47:53 2017
 By admin
</metadata>
<defs>
<font id="iconfont" horiz-adv-x="1024" >
  <font-face 
    font-family="iconfont"
    font-weight="500"
    font-stretch="normal"
    units-per-em="1024"
    panose-1="2 0 6 3 0 0 0 0 0 0"
    ascent="896"
    descent="-128"
    x-height="792"
    bbox="-7 -128.703 1024.7 896.703"
    underline-thickness="0"
    underline-position="0"
    unicode-range="U+0078-E6A7"
  />
<missing-glyph 
 />
    <glyph glyph-name=".notdef" 
 />
    <glyph glyph-name=".notdef" 
 />
    <glyph glyph-name=".null" horiz-adv-x="0" 
 />
    <glyph glyph-name="nonmarkingreturn" horiz-adv-x="341" 
 />
    <glyph glyph-name="x" unicode="x" horiz-adv-x="1001" 
d="M281 543q-27 -1 -53 -1h-83q-18 0 -36.5 -6t-32.5 -18.5t-23 -32t-9 -45.5v-76h912v41q0 16 -0.5 30t-0.5 18q0 13 -5 29t-17 29.5t-31.5 22.5t-49.5 9h-133v-97h-438v97zM955 310v-52q0 -23 0.5 -52t0.5 -58t-10.5 -47.5t-26 -30t-33 -16t-31.5 -4.5q-14 -1 -29.5 -0.5
t-29.5 0.5h-32l-45 128h-439l-44 -128h-29h-34q-20 0 -45 1q-25 0 -41 9.5t-25.5 23t-13.5 29.5t-4 30v167h911zM163 247q-12 0 -21 -8.5t-9 -21.5t9 -21.5t21 -8.5q13 0 22 8.5t9 21.5t-9 21.5t-22 8.5zM316 123q-8 -26 -14 -48q-5 -19 -10.5 -37t-7.5 -25t-3 -15t1 -14.5
t9.5 -10.5t21.5 -4h37h67h81h80h64h36q23 0 34 12t2 38q-5 13 -9.5 30.5t-9.5 34.5q-5 19 -11 39h-368zM336 498v228q0 11 2.5 23t10 21.5t20.5 15.5t34 6h188q31 0 51.5 -14.5t20.5 -52.5v-227h-327z" />
    <glyph glyph-name="arrow-up" unicode="&#xe669;" 
d="M1008 208l-418 417q-31 28 -78 28q-21 0 -40.5 -7t-28.5 -14l-9 -7l-418 -417q-14 -16 -14 -37q0 -23 16 -39.5t39 -16.5q22 0 38 15l388 388q13 13 29 13q7 0 15 -3.5t12 -7.5l4 -4q197 -190 386 -386q17 -17 40 -17t39 16.5t16 39.5t-16 39z" />
    <glyph glyph-name="arrow-left" unicode="&#xe66a;" 
d="M688 -112l-417 418q-28 31 -28 78q0 21 7 40.5t14 28.5l7 9l417 418q16 14 37 14q23 0 39.5 -16t16.5 -39q0 -22 -15 -38l-388 -388q-13 -13 -13 -29q0 -7 3.5 -15t7.5 -12l4 -4q190 -197 386 -386q17 -17 17 -40t-16.5 -39t-39.5 -16t-39 16z" />
    <glyph glyph-name="arrow-right" unicode="&#xe66b;" 
d="M338 -112l417 418q28 31 28 78q0 21 -7 40.5t-14 28.5l-7 9l-417 418q-16 14 -37 14q-23 0 -39.5 -16t-16.5 -39q0 -22 14 -38l389 -388q13 -13 13 -29q0 -7 -4 -15t-8 -12l-3 -4q-85 -88 -182 -185t-150.5 -149t-54.5 -52q-16 -17 -16 -40t16.5 -39t39.5 -16t39 16z" />
    <glyph glyph-name="arrow-down" unicode="&#xe66c;" 
d="M16 558l418 -417q31 -28 78 -28q21 0 40.5 7t28.5 14l9 7l418 417q14 16 14 37q0 23 -16 39.5t-39 16.5q-22 0 -38 -14l-388 -389q-13 -13 -29 -13q-7 0 -15 4t-12 8l-4 3q-88 85 -185 181.5t-149 150.5l-52 55q-17 16 -40 16t-39 -16.5t-16 -39.5t16 -39z" />
    <glyph glyph-name="caret-bottom" unicode="&#xe66d;" 
d="M1005 588l-446 -483q-8 -8 -21.5 -14t-25 -6t-25.5 6t-22 14l-446 483q-27 28 -17 61.5t49 33.5h923q38 0 48 -33.5t-17 -61.5z" />
    <glyph glyph-name="asterisk" unicode="&#xe66e;" 
d="M469 302l-317 -222q-11 -8 -24 -8q-23 0 -35 18q-8 11 -8 25q0 22 18 35l335 234l-335 234q-18 13 -18 35q0 14 8 25q12 18 35 18q13 0 24 -8l317 -222v387q0 18 13 30.5t30 12.5q18 0 30.5 -12.5t12.5 -30.5v-387l317 222q11 8 24 8q23 0 35 -18q10 -15 7 -32.5
t-17 -27.5l-335 -234l335 -234q18 -13 18 -35q0 -14 -8 -25q-12 -18 -35 -18q-13 0 -24 8l-317 222v-387q0 -18 -13 -30.5t-30 -12.5q-18 0 -30.5 12.5t-12.5 30.5v387z" />
    <glyph glyph-name="caret-left" unicode="&#xe66f;" 
d="M716 -109l-483 446q-8 8 -14 22t-6 25t6 25t14 22l483 446q28 27 61.5 17t33.5 -49v-922q0 -39 -33.5 -49t-61.5 17z" />
    <glyph glyph-name="caret-top" unicode="&#xe670;" 
d="M19 180l446 483q8 8 22 14t25.5 6t25 -6t21.5 -14l446 -483q27 -28 17 -61.5t-48 -33.5h-923q-39 0 -49 33.5t17 61.5z" />
    <glyph glyph-name="caret-right" unicode="&#xe671;" 
d="M308 877l483 -446q8 -8 14 -22t6 -25t-6 -25t-14 -22l-483 -446q-28 -27 -61.5 -17t-33.5 49v922q0 39 33.5 49t61.5 -17z" />
    <glyph glyph-name="circle-check-o" unicode="&#xe672;" 
d="M512 896q138 0 256 -69t187 -187t69 -256t-69 -256t-187 -187t-256 -69t-256 69t-187 187t-69 256t69 256t187 187t256 69zM512 811q-115 0 -213.5 -57.5t-156 -156t-57.5 -213.5t57.5 -213.5t156 -156t213.5 -57.5t213.5 57.5t156 156t57.5 213.5t-57.5 213.5t-156 156
t-213.5 57.5zM433 153q-77 76 -77 77l-162 163q-4 5 0 8q63 65 76 76q1 1 3 1t4 -1l2 -1l157 -157t4.5 -2t3.5 2l299 298q4 5 10 0q2 -3 75 -76v-7l-381 -381q-3 -3 -7 -3t-7 3z" />
    <glyph glyph-name="check" unicode="&#xe673;" 
d="M377 41v0q-22 0 -38 15l-323 315q-16 16 -16 38t16 38t39 16t39 -16l283 -277l553 540q17 15 39.5 15t38.5 -15.5t16 -38t-16 -37.5l-592 -578q-16 -15 -38 -15h-1z" />
    <glyph glyph-name="circle-check" unicode="&#xe674;" 
d="M512 896q-138 0 -256 -69t-187 -187t-69 -256t69 -256t187 -187t256 -69t256 69t187 187t69 256t-69 256t-187 187t-256 69zM433 153q-77 76 -77 77l-162 163q-4 5 0 8q63 65 76 76q1 1 3 1t4 -1l2 -1l157 -157t4.5 -2t3.5 2l299 298q4 5 10 0q2 -3 75 -76v-7l-381 -381
q-3 -3 -7 -3t-7 3z" />
    <glyph glyph-name="circle-close" unicode="&#xe675;" 
d="M512 896q139 0 257 -68.5t186.5 -186.5t68.5 -257t-68.5 -257t-186.5 -186.5t-257 -68.5t-257 68.5t-186.5 186.5t-68.5 257t68.5 257t186.5 186.5t257 68.5zM747 240l-144 144l144 144q6 6 6 14.5t-6 14.5l-63 62q-5 6 -13.5 6t-14.5 -6l-144 -145l-144 145
q-6 6 -14.5 6t-14.5 -6l-62 -63q-6 -5 -6 -13.5t6 -14.5l145 -144l-145 -144q-6 -6 -6 -14.5t6 -14.5l63 -62q5 -6 13.5 -6t14.5 6l144 145l144 -145q6 -6 14.5 -6t14.5 6l62 63q6 5 6 13.5t-6 14.5v0z" />
    <glyph glyph-name="copyright" unicode="&#xe676;" 
d="M721 288h-1l1 1v0q13 13 32 13q18 0 31 -12.5t13 -31.5v0q0 -6 -5 -17v0q-35 -65 -112 -110.5t-150 -45.5q-124 0 -211.5 87.5t-87.5 211.5t87.5 211.5t211.5 87.5q56 0 121.5 -29.5t101.5 -71.5v0q3 -8 4 -16q0 -19 -13 -32t-31 -13q-20 0 -33 14q-25 26 -69.5 44
t-80.5 18q-88 0 -150.5 -62.5t-62.5 -150.5t62.5 -150.5t150.5 -62.5q54 0 110 34t81 83v0zM512 896q139 0 257 -68.5t186.5 -186.5t68.5 -257t-68.5 -257t-186.5 -186.5t-257 -68.5t-257 68.5t-186.5 186.5t-68.5 257t68.5 257t186.5 186.5t257 68.5zM512 -43
q116 0 214 57.5t155.5 155.5t57.5 214t-57.5 214t-155.5 155.5t-214 57.5t-214 -57.5t-155.5 -155.5t-57.5 -214t57.5 -214t155.5 -155.5t214 -57.5z" />
    <glyph glyph-name="close" unicode="&#xe677;" 
d="M1008 -33l-418 417l418 417q16 17 16 40t-16.5 39t-39 16t-39.5 -16l-417 -418l-417 418q-16 14 -38 14q-23 0 -39 -16t-16 -39q0 -22 14 -38l418 -417l-418 -417q-14 -16 -14 -38t16 -38.5t39 -16.5q22 0 38 14l417 418l417 -418q17 -16 40 -16t39 16.5t16 39t-16 39.5z
" />
    <glyph glyph-name="circle-close-o" unicode="&#xe678;" 
d="M512 896q139 0 257 -68.5t186.5 -186.5t68.5 -257t-68.5 -257t-186.5 -186.5t-257 -68.5t-257 68.5t-186.5 186.5t-68.5 257t68.5 257t186.5 186.5t257 68.5zM512 811q-116 0 -214 -57.5t-155.5 -155.5t-57.5 -214t57.5 -214t155.5 -155.5t214 -57.5t214 57.5
t155.5 155.5t57.5 214t-57.5 214t-155.5 155.5t-214 57.5zM747 240q6 -6 6 -14.5t-6 -14.5l-63 -62q-5 -6 -13.5 -6t-14.5 6l-144 145l-144 -145q-6 -6 -14.5 -6t-14.5 6l-62 63q-6 5 -6 13.5t6 14.5l145 144l-145 144q-6 6 -6 14.5t6 14.5l63 62q5 6 13.5 6t14.5 -6
l144 -145l144 145q6 6 14.5 6t14.5 -6l62 -63q6 -5 6 -13.5t-6 -14.5l-145 -144l145 -144v0z" />
    <glyph glyph-name="d-arrow-left" unicode="&#xe679;" 
d="M471 -112l-418 418q-27 31 -27 78q0 21 6.5 40.5t13.5 28.5l7 9l418 418q15 14 37 14q23 0 39 -16t16 -39q0 -22 -14 -38l-388 -388q-14 -13 -14 -29q0 -7 4 -15t8 -12l4 -4q190 -197 386 -386q16 -17 16 -40t-16 -39t-39 -16t-39 16zM897 -112l-417 418q-28 31 -28 78
q0 21 7 40.5t14 28.5l7 9l417 418q16 14 37 14q23 0 39.5 -16t16.5 -39q0 -22 -14 -38l-389 -388q-13 -13 -13 -29q0 -7 4 -15t7 -12l4 -4q190 -197 387 -386q16 -17 16 -40t-16.5 -39t-39.5 -16t-39 16z" />
    <glyph glyph-name="d-caret" unicode="&#xe67a;" 
d="M163 537l319 345q13 14 33 14t34 -14l318 -345q19 -20 12 -44t-34 -24h-660q-27 0 -34 24t12 44zM163 231q-19 20 -12 44t34 24h660q27 0 34 -24t-12 -44l-318 -345q-14 -14 -34 -14t-33 14l-319 345v0z" />
    <glyph glyph-name="d-arrow-right" unicode="&#xe67b;" 
d="M547 -112l417 418q28 31 28 78q0 21 -7 40.5t-14 28.5l-7 9l-417 418q-16 14 -37 14q-23 0 -39.5 -16t-16.5 -39q0 -22 14 -38l389 -388q13 -13 13 -29q0 -7 -4 -15t-7 -12l-4 -4q-85 -88 -181.5 -185t-150.5 -149t-55 -52q-16 -17 -16 -40t16.5 -39t39.5 -16t39 16z
M120 -112l418 418q27 31 27 78q0 21 -7 40.5t-14 28.5l-6 9l-418 418q-16 14 -37 14q-23 0 -39 -16t-16 -39q0 -22 14 -38l388 -388q14 -13 14 -29q0 -7 -4 -15t-8 -12l-4 -4q-191 -198 -386 -386v0q-16 -17 -16 -40t16 -39t39 -16t39 16z" />
    <glyph glyph-name="date" unicode="&#xe67c;" 
d="M283 622h17q18 0 27 17t9 37v174q0 18 -10 32t-29 14h-17q-18 0 -27.5 -14t-9.5 -32v-182q0 -13 11.5 -29.5t28.5 -16.5zM721 622h17q18 0 28 17t10 37v174q0 19 -9 32.5t-27 13.5h-18q-18 0 -28.5 -14t-10.5 -32v-182q0 -12 13 -29t25 -17zM892 810h-80v-93h80
q16 0 26 -6.5t13.5 -19t4.5 -20.5t1 -21v-64h-846v64q0 67 45 67h78v93h-72q-55 0 -98.5 -55.5t-43.5 -110.5v-617q0 -55 43.5 -105t98.5 -50h757q51 0 88 48t37 107v617q-4 37 -20 74t-46 64.5t-66 27.5v0zM933 33q0 -68 -41 -68h-750q-21 0 -34.5 18.5t-13.5 43.5v470h839
v-464v0zM650 810v-93h-274v93h274v0zM270 279v0q-25 0 -42.5 17.5t-17.5 42.5t17.5 42.5t42.5 17.5v0q24 0 41.5 -17.5t17.5 -42.5t-17.5 -42.5t-41.5 -17.5zM505 279v0q-25 0 -42.5 17.5t-17.5 42.5t17.5 42.5t42.5 17.5v0q25 0 42.5 -17.5t17.5 -42.5t-17.5 -42.5
t-42.5 -17.5zM740 279v0q-24 0 -41.5 17.5t-17.5 42.5t17.5 42.5t41.5 17.5v0q25 0 42.5 -17.5t17.5 -42.5t-17.5 -42.5t-42.5 -17.5zM269.5 63q-24.5 0 -42 17.5t-17.5 42.5t17.5 42.5t42 17.5t42 -17.5t17.5 -42.5t-17.5 -42.5t-42 -17.5zM505 63q-25 0 -42.5 17.5
t-17.5 42.5t17.5 42.5t42.5 17.5t42.5 -17.5t17.5 -42.5t-17.5 -42.5t-42.5 -17.5z" />
    <glyph glyph-name="delete" unicode="&#xe67d;" 
d="M654 544q6 0 11 -4.5t5 -11.5v-480v0q0 -6 -5 -11t-11 -5h-32v0q-7 0 -11.5 5t-4.5 11v0v480q0 7 4.5 11.5t11.5 4.5h32zM398 544q6 0 11 -4.5t5 -11.5v-480v0q0 -6 -5 -11t-11 -5v0h-32v0q-7 0 -11.5 5t-4.5 11v0v480q0 7 4.5 11.5t11.5 4.5h32zM878 640h-16v-704
q0 -26 -19 -45t-45 -19h-576q-27 0 -45.5 19t-18.5 45v384h96v-352h512v672h-512v-160h-96v160h-16q-20 0 -34 14t-14 34t14 34t34 14h176v96q0 26 18.5 45t45.5 19h256q26 0 45 -19t19 -45v-96h176q19 0 33.5 -14t14.5 -34t-14.5 -34t-33.5 -14v0zM606 800h-192v-64h192v64
z" />
    <glyph glyph-name="date1" unicode="&#xe67e;" 
d="M283 622h17q18 0 27 17t9 37v174q0 18 -10 32t-29 14h-17q-18 0 -27.5 -14t-9.5 -32v-182q0 -13 11.5 -29.5t28.5 -16.5zM721 622h17q18 0 28 17t10 37v174q0 19 -9 32.5t-27 13.5h-18q-18 0 -28.5 -14t-10.5 -32v-182q0 -12 13 -29t25 -17zM892 810h-80v-93h80
q16 0 26 -6.5t13.5 -19t4.5 -20.5t1 -21v-64h-846v64q0 67 45 67h78v93h-72q-55 0 -98.5 -55.5t-43.5 -110.5v-617q0 -55 43.5 -105t98.5 -50h757q51 0 88 48t37 107v617q-4 37 -20 74t-46 64.5t-66 27.5v0zM933 33q0 -68 -41 -68h-750q-21 0 -34.5 18.5t-13.5 43.5v470h839
v-464v0zM650 810h-274v-93h274v93v0z" />
    <glyph glyph-name="download" unicode="&#xe67f;" 
d="M973 308q18 0 34.5 -12.5t16.5 -28.5v-269q0 -17 -12 -28.5t-29 -11.5h-942q-17 0 -29 11.5t-12 28.5v269q0 16 16.5 28.5t34.5 12.5t34.5 -12.5t16.5 -28.5v-198h811v198q0 16 20.5 28.5t39.5 12.5zM311 553q20 0 35 -14l117 -143v366q2 19 16 32t33 13t33.5 -13
t15.5 -32v-367l119 144q14 14 35 14q20 0 34.5 -14t14.5 -35q0 -20 -15 -34l-199 -242q-14 -15 -35 -15h-2.5h-2.5q-20 0 -34 14l-200 243q-14 14 -14 34.5t14.5 34.5t34.5 15v-1z" />
    <glyph glyph-name="download1" unicode="&#xe680;" 
d="M375 553q1 4 4 11t13.5 27.5t23.5 39t35.5 40t48.5 36t63.5 22.5t79.5 3q159 -21 206 -182q15 -52 15 -125q7 -2 18.5 -5.5t40 -20t50 -39t38 -64.5t12.5 -95q-4 -34 -17 -62.5t-30 -45.5t-36.5 -30t-38 -19t-33.5 -9t-24 -3.5l-9 -0.5h-259h-128h-267q-3 0 -9.5 0.5
t-25 4.5t-35.5 10t-38 19.5t-36 32t-25.5 48.5t-11.5 66q0 50 17.5 90.5t41 62.5t50 37t41 19.5t17.5 4.5q-1 3 -1 9.5t1.5 24.5t7 34.5t19.5 36.5t35 33q72 44 136 -3zM448 415v-192h-128l192 -192l192 192h-128v192h-128v0z" />
    <glyph glyph-name="document" unicode="&#xe681;" 
d="M860 -128h-710q-25 2 -49 25.5t-24 72.5v842q-4 38 17 62q8 9 22.5 15.5t26.5 6.5h2h490q14 0 25 -10l278 -285q11 -10 11 -24v-614q0 -20 -11 -43q-24 -48 -78 -48zM166 -42l681 -1q12 0 17 7q3 4 3 13v581l-249 253l-458 -1v-826q0 -23 4 -26h1h1zM151 -58h3h5h-4v0h-4
zM727 76h-430q-15 0 -25.5 12.5t-10.5 30t10.5 30t25.5 12.5h430q15 0 25.5 -12.5t10.5 -30t-10.5 -30t-25.5 -12.5zM727 222h-430q-15 0 -25.5 12.5t-10.5 30t10.5 30t25.5 12.5h430q15 0 25.5 -12.5t10.5 -30t-10.5 -30t-25.5 -12.5zM727 368h-430q-15 0 -25.5 12.5
t-10.5 30t10.5 30t25.5 12.5h430q15 0 25.5 -12.5t10.5 -30t-10.5 -30t-25.5 -12.5zM717 552q-53 0 -83 30q-11 12 -19.5 31.5t-8.5 35.5v217q0 10 6.5 16.5t16.5 6.5t16 -6l285 -290q7 -7 7 -16.5t-7 -16.5t-16 -7q-99 0 -197 -1v0zM660 658q0 -13 9 -26q15 -24 55 -24h1.5
h1.5h7h22h69h41l-206 210v-160z" />
    <glyph glyph-name="edit" unicode="&#xe682;" 
d="M340 -32l-340 -96l97 340zM1008 635l-82 -82l-244 244l82 82q2 2 4.5 4t11.5 6.5t18 6t21.5 -2.5t23.5 -15l160 -160q13 -12 17.5 -25t3 -23t-5 -18t-6.5 -12l-4 -5v0zM902 529l-537 -536l-244 243l537 537z" />
    <glyph glyph-name="frown-o" unicode="&#xe683;" 
d="M512 -128q-139 0 -257 68.5t-186.5 186.5t-68.5 257t68.5 257t186.5 186.5t257 68.5t257 -68.5t186.5 -186.5t68.5 -257t-68.5 -257t-186.5 -186.5t-257 -68.5zM512 -43q116 0 214 57.5t155.5 155.5t57.5 214t-57.5 214t-155.5 155.5t-214 57.5t-214 -57.5t-155.5 -155.5
t-57.5 -214t57.5 -214t155.5 -155.5t214 -57.5zM329 424q-30 0 -51.5 25t-21.5 60.5t21.5 60.5t51.5 25t51.5 -25t21.5 -60.5t-21.5 -60.5t-51.5 -25zM695 424q-30 0 -51.5 25t-21.5 60.5t21.5 60.5t51.5 25t51.5 -25t21.5 -60.5t-21.5 -60.5t-51.5 -25zM512 274
q105 0 181 -60t76 -129q-26 35 -98 71.5t-159 36.5q-89 0 -156 -33t-101 -75q0 67 76.5 128t180.5 61z" />
    <glyph glyph-name="heart-off" unicode="&#xe684;" 
d="M736 768q102 0 173.5 -69t71.5 -166q0 -47 -16 -85t-59 -97q-64 -89 -224 -217q-86 -68 -157 -117q-6 -4 -13 -4t-13 4q-81 56 -157 117q-160 128 -224 217q-43 59 -59 97t-16 85q0 97 71.5 166t173.5 69q79 0 191 -135l33 -39l33 39q113 135 191 135z" />
    <glyph glyph-name="frown" unicode="&#xe685;" 
d="M512 -128q-139 0 -257 68.5t-186.5 186.5t-68.5 257t68.5 257t186.5 186.5t257 68.5t257 -68.5t186.5 -186.5t68.5 -257t-68.5 -257t-186.5 -186.5t-257 -68.5zM329 424q30 0 51.5 25t21.5 60.5t-21.5 60.5t-51.5 25t-51.5 -25t-21.5 -60.5t21.5 -60.5t51.5 -25zM695 424
q30 0 51.5 25t21.5 60.5t-21.5 60.5t-51.5 25t-51.5 -25t-21.5 -60.5t21.5 -60.5t51.5 -25zM513 274q-104 0 -180.5 -61t-76.5 -128q34 41 101 74.5t156 33.5q87 0 159 -36.5t98 -71.5q0 68 -76 128.5t-181 60.5z" />
    <glyph glyph-name="heart-on" unicode="&#xe686;" 
d="M736 811q-98 0 -224 -150q-126 150 -224 150q-119 0 -203.5 -81.5t-84.5 -196.5q0 -33 7 -62.5t21.5 -57.5t25 -44.5t29.5 -42.5q31 -42 82.5 -93t98.5 -90t100.5 -80t75 -56.5t35.5 -24.5q17 -11 37 -11t37 11q14 9 35.5 24.5t75 56.5t100.5 80t98.5 90t81.5 93
q20 26 30.5 42.5t25 44.5t21.5 57.5t7 62.5q0 115 -84.5 196.5t-203.5 81.5z" />
    <glyph glyph-name="filter" unicode="&#xe687;" 
d="M938 802l-361 -397v-438l-131 103v336l-360 396h852zM938 888h-852v0q-36 0 -61 -25t-25 -61q0 -13 6.5 -30t15.5 -27l338 -372v-303q0 -42 33 -68l130 -103q24 -18 54 -18q35 0 60 25t25 61v405l340 373q9 10 15.5 27t6.5 30q0 36 -25 61t-61 25v0z" />
    <glyph glyph-name="information" unicode="&#xe688;" 
d="M512 -128h-7q-104 0 -198.5 40.5t-163 109t-109.5 163.5t-41 199t41 199t109.5 163.5t163 109t198.5 40.5h7q103 -1 196.5 -42.5t161 -110t107.5 -162.5t40 -197t-40 -197t-107.5 -162.5t-161 -110t-196.5 -42.5zM512 699q-26 0 -45 -19t-19 -45.5t19 -45t45 -18.5
t45 18.5t19 45t-19 45.5t-45 19zM576 436v0q0 13 -9.5 22.5t-22.5 9.5v0h-64v0q-13 0 -22.5 -9.5t-9.5 -22.5v0v-320q0 -13 9.5 -22.5t22.5 -9.5h64q13 0 22.5 9.5t9.5 22.5v320z" />
    <glyph glyph-name="loading" unicode="&#xe689;" 
d="M618 761q1 -2 1 -5q0 -55 -39.5 -94.5t-95.5 -39.5t-95.5 39.5t-39.5 94.5v5q2 54 41.5 92t93.5 38t93.5 -38t40.5 -92v0zM769 522h1q50 0 85.5 35.5t35.5 85.5t-35.5 85.5t-85.5 35.5v0q-51 0 -86.5 -35.5t-35.5 -85.5t35.5 -85.5t85.5 -35.5zM888 465
q-45 0 -76.5 -31.5t-31.5 -76.5t31.5 -76.5t76.5 -31.5v0q45 0 76.5 31.5t31.5 76.5t-31.5 76.5t-76.5 31.5v0zM770 166q-39 0 -67 -28t-28 -67t28 -66.5t67 -27.5t66.5 27.5t27.5 66.5q0 17 -8 36.5t-19.5 31t-31 19.5t-35.5 8v0zM484 34q-34 0 -57.5 -24t-23.5 -57.5
t23.5 -57t57.5 -23.5v0q33 0 57 23.5t24 57t-24 57.5t-57 24v0zM198 139q-28 0 -47.5 -20t-19.5 -48t19.5 -47.5t47.5 -19.5t47.5 19.5t19.5 47.5t-19.5 47.5t-47.5 19.5v1zM80 411v0q-23 0 -38.5 -16t-15.5 -38t15.5 -38t37.5 -16h1q22 0 37.5 16t15.5 38t-15.5 38
t-37.5 16zM198 603q1 0 4 0.5t4 0.5q12 2 21 10q11 12 11 29t-11.5 28.5t-28.5 11.5t-29 -11.5t-12 -28.5t12 -28.5t29 -11.5v0z" />
    <glyph glyph-name="information-o" unicode="&#xe68a;" 
d="M512 -128h-7q-104 0 -198.5 40.5t-163 109t-109.5 163.5t-41 199t41 199t109.5 163.5t163 109t198.5 40.5h7q103 -1 196.5 -42.5t161 -110t107.5 -162.5t40 -197t-40 -197t-107.5 -162.5t-161 -110t-196.5 -42.5zM512 -43h6q116 0 214 57.5t155.5 155.5t57.5 214
t-57.5 214t-155.5 155.5t-214 57.5h-6q-114 -2 -211 -59.5t-153.5 -155.5t-56.5 -212t56.5 -212t153.5 -155.5t211 -59.5zM512 699q-26 0 -45 -19t-19 -45.5t19 -45t45 -18.5t45 18.5t19 45t-19 45.5t-45 19zM576 436v0q0 13 -9.5 22.5t-22.5 9.5v0h-64v0q-13 0 -22.5 -9.5
t-9.5 -22.5v0v-320q0 -13 9.5 -22.5t22.5 -9.5h64q13 0 22.5 9.5t9.5 22.5v320z" />
    <glyph glyph-name="lock" unicode="&#xe68b;" 
d="M911 414q-3 33 -29 56.5t-59 24.5l-490 -1v135q0 73 52.5 125t125.5 52q69 0 121.5 -53t51.5 -124v-148q20 -2 35 -2t30 1t24 1v149q0 129 -73.5 197.5t-189.5 68.5q-108 0 -185.5 -76t-80.5 -185v-6v0v-93v-41l-53 -1q-34 -3 -57 -28.5t-23 -59.5v-48v-350v-47
q0 -37 26 -63t63 -26h622q37 0 62.5 25.5t26.5 62.5v454zM200 -38v443h-30l30 -84q1 52 18.5 68t70.5 16h-28h23h4.5h5.5l480 1h-41q51 0 69 -14.5t20 -59.5v-291q-1 -46 -16.5 -62t-58.5 -18zM770 -39l52 1v71l-4 -69zM200 46l-4 -90l87 5q-49 1 -65.5 17.5t-17.5 67.5z
M557 158v-62q-1 -18 -14.5 -32t-32.5 -14q-18 0 -32 14t-14 32v62q-13 10 -22 28.5t-9 34.5q0 32 22.5 54.5t55 22.5t55 -22.5t22.5 -54.5q0 -16 -9.5 -34.5t-21.5 -28.5v0z" />
    <glyph glyph-name="minus" unicode="&#xe68c;" 
d="M452 896h120v-1024h-120v1024z" />
    <glyph glyph-name="message-o" unicode="&#xe68d;" 
d="M1024 547v-365q0 -70 -50 -120t-121 -50h-682q-71 0 -121 50t-50 120v365q0 83 48.5 147.5t122.5 64.5h682q50 0 90 -34.5t60.5 -82.5t20.5 -95zM163 675q319 -211 332 -218q12 -5 16.5 -5.5t17.5 5.5q7 4 90 58.5t163 107l80 52.5h-699v0zM99 613q-14 -33 -14 -67v-361
q0 -3 0.5 -9t5.5 -21t13 -27t25.5 -21t41.5 -9l683 -1q3 1 9 2t20.5 7t25.5 14t20.5 24t9.5 36v98v140v87v15.5v17t-0.5 14.5t-1.5 16t-3 14t-4.5 15t-6.5 14q-260 -170 -327 -213q-50 -31 -85 -31.5t-78 29.5q-323 212 -334 218v-1z" />
    <glyph glyph-name="message" unicode="&#xe68e;" 
d="M1018 590q6 -22 6 -44v-365q0 -70 -50 -120t-121 -50h-682q-71 0 -121 50t-50 120v365q0 22 6 44l417 -290q44 -32 89.5 -31.5t88.5 31.5zM853 759h-682q-47 0 -86 -22.5t-61 -61.5l407 -279q78 -64 162 0l407 279q-20 35 -63 59.5t-84 24.5z" />
    <glyph glyph-name="menu" unicode="&#xe68f;" 
d="M783 -128q98 2 167 72.5t69 168.5t-69 168.5t-167 72.5h-241v-241q0 -100 70.5 -170.5t170.5 -70.5zM241 -128q100 0 170.5 70.5t70.5 170.5v241h-241q-98 -2 -167 -72.5t-69 -168.5t69 -168.5t167 -72.5zM542 414h241v0q100 0 170.5 70.5t70.5 170.5t-70.5 170.5
t-170.5 70.5t-170.5 -70.5t-70.5 -170.5v0v-241zM241 414h241v241v0q0 100 -70.5 170.5t-170.5 70.5t-170.5 -70.5t-70.5 -170.5t70.5 -170.5t170.5 -70.5v0v0z" />
    <glyph glyph-name="more" unicode="&#xe690;" 
d="M128 512q-53 0 -90.5 -37.5t-37.5 -90.5t37.5 -90.5t90.5 -37.5t90.5 37.5t37.5 90.5t-37.5 90.5t-90.5 37.5zM512 512q-53 0 -90.5 -37.5t-37.5 -90.5t37.5 -90.5t90.5 -37.5t90.5 37.5t37.5 90.5t-37.5 90.5t-90.5 37.5zM896 512q-53 0 -90.5 -37.5t-37.5 -90.5
t37.5 -90.5t90.5 -37.5t90.5 37.5t37.5 90.5t-37.5 90.5t-90.5 37.5z" />
    <glyph glyph-name="picture" unicode="&#xe691;" 
d="M922 794h-820v0q-42 0 -72 -30t-30 -73v-614q0 -43 30 -73t72 -30h820q42 0 72 30t30 73v614v0q0 43 -30 73t-72 30zM939 305q-72 29 -131 -30l-92 -92q-1 1 -2.5 3.5t-2.5 3.5l-290 290q-17 16 -45.5 28t-51.5 12t-51.5 -12t-45.5 -28q-23 -24 -58.5 -63.5t-59.5 -67.5
l-24 -28v302q0 85 86 85h682q86 0 86 -85v-318zM734 623v0q-50 0 -85 -35t-35 -84.5t35 -84.5t85 -35v0q49 0 84 35t35 84.5t-35 84.5t-84 35z" />
    <glyph glyph-name="pay" unicode="&#xe692;" 
d="M0 683q0 35 25 60t61 25h852h1q35 0 60 -25t25 -60v-598q0 -35 -25 -60t-61 -25h-852h-1q-35 0 -60 25t-25 60v598zM85 649v-530q0 -14 10 -24t25 -10h784q15 0 25 10t10 24v530q0 14 -10 24t-24 10h-1h-784h-1q-14 0 -24 -10t-10 -24v0zM85 597h854v-128h-854v128z
M512 273q0 18 12 30.5t30 12.5h258q17 -1 29 -13.5t12 -29.5v0q0 -18 -12 -30.5t-29 -12.5h-258q-17 1 -29.5 13.5t-12.5 29.5v0z" />
    <glyph glyph-name="plus" unicode="&#xe693;" 
d="M572 444v393q-1 24 -18.5 41.5t-41.5 17.5q-25 0 -42.5 -17.5t-17.5 -41.5v-393h-393q-24 -1 -41.5 -18.5t-17.5 -41.5q0 -25 17.5 -42.5t41.5 -17.5h393v-393q0 -24 17.5 -41.5t42.5 -17.5t42.5 17.5t17.5 41.5v393h393q24 1 41.5 18.5t17.5 41.5q0 25 -17.5 42.5
t-41.5 17.5h-393z" />
    <glyph glyph-name="paper-clip" unicode="&#xe694;" 
d="M110 214l389 389q41 42 100 42q55 0 93 -38t38 -93q0 -59 -42 -100l-275 -275q-6 -6 -14 -6q-11 0 -32 20.5t-21 31.5q1 9 7 15l275 274q16 17 17 40v1q0 18 -13 31t-31 13h-1h-1q-23 0 -39 -16l-390 -390q-42 -42 -42 -97v-3q0 -40 28 -68t68 -28h3q55 0 97 42l520 521
q21 20 36 55t15 64v2v3q0 29 -14.5 63.5t-34.5 55.5q-20 20 -54 35t-63 15h-3q-68 0 -121 -52l-406 -406q-6 -7 -16 -7t-30.5 20.5t-20.5 30.5q0 9 6 15l406 406q77 76 183 76q107 0 180.5 -74.5t73.5 -180.5q0 -105 -76 -182l-520 -520q-67 -67 -158 -67q-79 0 -131.5 53
t-52.5 131q0 92 67 158z" />
    <glyph glyph-name="question-circle-o" unicode="&#xe695;" 
d="M512 896q139 0 257 -68.5t186.5 -186.5t68.5 -257t-68.5 -257t-186.5 -186.5t-257 -68.5t-257 68.5t-186.5 186.5t-68.5 257t68.5 257t186.5 186.5t257 68.5zM512 811q-116 0 -214 -57.5t-155.5 -155.5t-57.5 -214t57.5 -214t155.5 -155.5t214 -57.5t214 57.5
t155.5 155.5t57.5 214t-57.5 214t-155.5 155.5t-214 57.5zM559 32h-96v97h96v-97zM713 464q-22 -39 -83 -93q-41 -37 -55 -55q-12 -17 -18 -40q-7 -23 -8 -74h-81q-1 13 -1 26q0 50 14 86q11 28 34 56q29 31 61 59q44 39 57.5 62t13.5 51q0 49 -39 87q-16 15 -43 26t-49 11
h-3q-54 0 -90.5 -34t-47.5 -106l-88 10q12 97 70.5 148.5t154.5 51.5q101 0 161.5 -55t60.5 -134q0 -45 -21 -83v0z" />
    <glyph glyph-name="share" unicode="&#xe696;" 
d="M841 277q-54 0 -98.5 -29t-67.5 -75l-309 61q-3 26 -13 49l205 224q36 -16 75 -16q76 0 130 53.5t54 129.5t-54 130t-130 53.5t-129.5 -54t-53.5 -129.5q0 -57 32 -103l-192 -209q-20 14 -51 24t-55 10v0q-76 0 -130 -54t-54 -129.5t54 -129.5t130 -54q54 0 99 29t67 77
l308 -61q7 -68 60.5 -116t121.5 -48q76 0 130 53.5t54 129.5t-54 130t-129 54v0zM633 758q34 -2 57 -26.5t23 -57.5t-23 -57.5t-57 -26.5q-33 2 -56.5 26.5t-23.5 57.5t23.5 57.5t56.5 26.5zM184 129v0q-35 0 -59.5 24.5t-24.5 58.5q1 33 25.5 56.5t58 23.5t58 -23.5
t25.5 -56.5q0 -34 -24.5 -58.5t-58.5 -24.5v0zM840 9q-33 2 -56.5 26.5t-23.5 57.5t23.5 57.5t56.5 26.5q34 -2 57.5 -26.5t23.5 -57.5t-23.5 -57.5t-57.5 -26.5z" />
    <glyph glyph-name="search" unicode="&#xe697;" 
d="M684 286l325 -325q15 -16 15 -37.5t-15 -36.5t-36.5 -15t-36.5 16l-325 324q-42 -32 -109.5 -54.5t-120.5 -22.5q-104 0 -191.5 51t-138.5 138.5t-51 191t51 191t138.5 138.5t191 51t191 -51t138.5 -138.5t51 -191.5q0 -53 -22.5 -120t-54.5 -109v0zM378 792
q-116 0 -195 -81.5t-79 -197.5q0 -115 79 -194.5t195 -79.5t197.5 79.5t81.5 194.5q0 116 -81.5 197.5t-197.5 81.5v0z" />
    <glyph glyph-name="question-circle" unicode="&#xe698;" 
d="M512 896q-139 0 -257 -68.5t-186.5 -186.5t-68.5 -257t68.5 -257t186.5 -186.5t257 -68.5t257 68.5t186.5 186.5t68.5 257t-68.5 257t-186.5 186.5t-257 68.5zM559 32h-96v97h96v-97zM713 464q-22 -39 -83 -93q-41 -37 -55 -55q-12 -17 -18 -40q-7 -23 -8 -74h-81
q-1 13 -1 26q0 50 14 86q11 28 34 56q29 31 61 59q44 39 57.5 62t13.5 51q0 49 -39 87q-16 15 -43 26t-49 11h-3q-54 0 -90.5 -34t-47.5 -106l-88 10q12 97 70.5 148.5t154.5 51.5q101 0 161.5 -55t60.5 -134q0 -45 -21 -83v0z" />
    <glyph glyph-name="setting" unicode="&#xe699;" 
d="M990 424v-45v-35q-1 -14 -10 -16q-89 -15 -103 -18q-14 -2 -27.5 -12t-19.5 -22l-6 -14v-1q-5 -10 -8 -17q-6 -13 -6 -27q0 -20 11 -37q18 -24 31 -43h1q22 -32 28 -41q8 -12 -1 -20l-31 -31l-29 -28q-9 -9 -19 -2l-36 25v1l-42 29q-5 4 -11 8q-14 9 -31 9q-13 0 -25 -6
q-21 -9 -26 -11l-4 -2l-4 -2q-13 -6 -23.5 -20t-12.5 -28l-9 -54v-2q-5 -30 -8 -45q-1 -6 -5.5 -8.5t-16.5 -2.5h-10h-32h-33q-14 1 -16 13l-7 43l-1 2q-7 42 -9 52q-9 40 -40 53q-13 6 -26 11h-1l-1 1q-13 5 -26 5q-22 0 -40 -13l-44 -31l-1 -1l-35 -25q-12 -8 -22 1
l-28 28v0l-31 31q-9 9 -3 18l28 38v1l28 39q18 25 17 46q-1 8 -6 24q-3 10 -8 19v1q-2 5 -4 9q-14 34 -52 40q-29 4 -58 9l-9 2l-24 4t-15.5 5.5t-3.5 12.5v79q0 15 9 17l46 8h1q37 6 48 8q25 5 38 13.5t21 27.5q13 29 15 37q10 28 -15 63l-29 42l-1 1l-20 28q-12 16 -5 24
l28 27v0q26 25 35 35q7 7 16 0l34 -24h1q32 -23 43 -30q21 -14 35 -16.5t34 4.5l14 6l22 9q13 5 22 17q10 14 13 31l8 51v2q7 41 9 50q0 2 3.5 5t5.5 3h91q4 0 8 -2.5t4 -5.5l8 -49v0l9 -52q2 -14 9 -26q6 -11 16 -19q15 -8 31 -15l18 -7q10 -4 22 -4t24 5q6 2 11 6l45 32
l43 30q1 1 4 1q5 1 4 2l37 -35l1 -1l31 -31q3 -3 3.5 -8.5t-0.5 -7.5l-29 -40v0l-31 -42q-13 -18 -13 -40q0 -13 4 -24l7 -16l8 -20q4 -12 17 -22t28 -13l55 -9l50 -8q10 -2 10 -17v0zM512 201q76 0 129.5 53.5t53.5 129.5t-53.5 129.5t-129.5 53.5t-129.5 -53.5
t-53.5 -129.5t53.5 -129.5t129.5 -53.5z" />
    <glyph glyph-name="setting1" unicode="&#xe69a;" 
d="M1023 423v-80q0 -42 -38 -49q-94 -16 -102 -18q-17 -3 -22 -15q-13 -26 -15 -31q-7 -17 2 -30q57 -80 61 -86q5 -8 7.5 -17.5t0 -22t-12.5 -22.5q-41 -40 -60 -59q-15 -15 -35 -15q-16 0 -29 9q-64 46 -77 56q-11 7 -16 8.5t-18 -1.5q-25 -11 -33 -15q-14 -7 -17 -22
q-12 -76 -17 -103q-7 -38 -55 -38h-75q-43 1 -50 41q-15 86 -17 96q-4 22 -20 29l-27 11q-6 3 -13 3q-12 0 -21 -7q-40 -29 -80 -57q-13 -10 -30 -10q-20 0 -35 15q-45 44 -59 59q-12 12 -14.5 28.5t7.5 32.5q45 62 57 79q9 13 9.5 20.5t-3.5 17.5q-1 1 -12 28q-6 16 -26 19
q-52 8 -91 15q-47 9 -47 51v79q0 19 10 33.5t27 17.5q9 2 46 8t49 8q17 4 23 7.5t11 13.5q12 28 14 34q4 12 -10 33q-32 44 -51 71q-12 17 -13 35.5t12 31.5q49 48 63 62q13 14 32 14q15 0 28 -10q69 -48 77 -53q13 -10 20 -11.5t17 2.5l36 15q11 4 14 22q14 86 17 103
q2 13 15 24.5t27 11.5h26.5h38h26.5q16 0 30 -10t16 -26l17 -101q2 -7 5 -13t5 -9l2 -2q28 -12 41 -17q7 -2 12.5 -1.5t8.5 2.5l4 2l88 63q10 7 26.5 7t25.5 -8q55 -54 69 -68q11 -12 12.5 -30.5t-6.5 -28.5q-4 -5 -29.5 -40.5t-29.5 -42.5q-12 -16 -6 -31l15 -36
q6 -11 18 -14l105 -17q18 -3 28.5 -17t10.5 -34zM511.5 554q-70.5 0 -120.5 -50t-50 -120.5t50 -120.5t120.5 -50t120.5 50t50 120.5t-50 120.5t-120.5 50z" />
    <glyph glyph-name="smile-o" unicode="&#xe69b;" 
d="M512 -128q-139 0 -257 68.5t-186.5 186.5t-68.5 257t68.5 257t186.5 186.5t257 68.5t257 -68.5t186.5 -186.5t68.5 -257t-68.5 -257t-186.5 -186.5t-257 -68.5zM512 -43q116 0 214 57.5t155.5 155.5t57.5 214t-57.5 214t-155.5 155.5t-214 57.5t-214 -57.5t-155.5 -155.5
t-57.5 -214t57.5 -214t155.5 -155.5t214 -57.5zM329 424q-30 0 -51.5 25t-21.5 60.5t21.5 60.5t51.5 25t51.5 -25t21.5 -60.5t-21.5 -60.5t-51.5 -25zM695 424q-30 0 -51.5 25t-21.5 60.5t21.5 60.5t51.5 25t51.5 -25t21.5 -60.5t-21.5 -60.5t-51.5 -25zM512 24
q-59 0 -114.5 24t-93.5 61t-61.5 81t-23.5 84q20 -24 43 -46t62 -53.5t88.5 -50.5t99.5 -19t101.5 21t90 52t63 54.5t38.5 41.5q0 -42 -23.5 -86.5t-61.5 -81t-93.5 -59.5t-114.5 -23v0z" />
    <glyph glyph-name="star-on" unicode="&#xe69c;" 
d="M825 -95v0q-7 0 -14 3l-299 162l-299 -162q-7 -3 -14 -3q-9 0 -16 5q-12 8 -12 23v5l55 323l-218 215q-8 8 -8 20q0 10 7 18t17 10l327 54l136 268q8 16 25.5 16t24.5 -16l136 -268l327 -54q17 -3 23 -19q1 -5 1 -9q0 -12 -8 -20l-217 -215l54 -323v-5q0 -12 -8 -20
t-20 -8v0z" />
    <glyph glyph-name="smile" unicode="&#xe69d;" 
d="M512 -128q-139 0 -257 68.5t-186.5 186.5t-68.5 257t68.5 257t186.5 186.5t257 68.5t257 -68.5t186.5 -186.5t68.5 -257t-68.5 -257t-186.5 -186.5t-257 -68.5zM329 424q30 0 51.5 25t21.5 60.5t-21.5 60.5t-51.5 25t-51.5 -25t-21.5 -60.5t21.5 -60.5t51.5 -25zM695 424
q30 0 51.5 25t21.5 60.5t-21.5 60.5t-51.5 25t-51.5 -25t-21.5 -60.5t21.5 -60.5t51.5 -25zM512 24q59 0 114.5 23t93.5 59.5t61.5 81t23.5 86.5q-14 -18 -38 -41.5t-63 -54.5t-90.5 -52t-101.5 -21t-99.5 19t-88.5 50.5t-62 53.5t-43 46q0 -40 23.5 -84t61.5 -81t93.5 -61
t114.5 -24v0z" />
    <glyph glyph-name="star-off" unicode="&#xe69e;" 
d="M825 -95v0q-7 0 -14 3l-299 162l-299 -162q-7 -3 -14 -3q-9 0 -16 5q-12 8 -12 23v5l55 323l-218 215q-8 8 -8 20q0 10 7 18t17 10l327 54l136 268q8 16 25.5 16t24.5 -16l136 -268l327 -54q17 -3 23 -19q1 -5 1 -9q0 -12 -8 -20l-217 -215l54 -323v-5q0 -12 -8 -20
t-20 -8v0zM513 153v0q6 0 12 -3l237 -128l-43 254v5q0 10 7 17l171 169l-260 43q-12 2 -18 14l-106 209l-106 -209q-6 -12 -19 -14l-259 -43l170 -168q10 -10 8 -23l-43 -254l237 128q5 3 12 3v0z" />
    <glyph glyph-name="time" unicode="&#xe69f;" 
d="M546 418h197q18 0 30 -12.5t12 -30.5v0v-16v-1q0 -17 -12 -29.5t-30 -12.5h-238h-2h-16q-9 0 -17 3q-11 4 -18.5 15.5t-7.5 23.5v257q0 18 12.5 30t29.5 12h1h16q18 0 30.5 -12t12.5 -30v-197zM512 -128q-139 0 -257 68.5t-186.5 186.5t-68.5 257t68.5 257t186.5 186.5
t257 68.5t257 -68.5t186.5 -186.5t68.5 -257t-68.5 -257t-186.5 -186.5t-257 -68.5zM512 -26q111 0 205.5 55t149.5 149.5t55 205.5t-55 205.5t-149.5 149.5t-205.5 55t-205.5 -55t-149.5 -149.5t-55 -205.5t55 -205.5t149.5 -149.5t205.5 -55z" />
    <glyph glyph-name="unlock" unicode="&#xe6a0;" 
d="M909 412q-3 33 -28.5 56.5t-58.5 24.5l-488 -1l-1 135q1 72 53 123.5t125 52.5q66 0 117.5 -47t58.5 -113q-3 -8 -3 -16v-1q0 -15 13.5 -30t30.5 -15q18 0 29.5 10t14.5 19.5t3 17.5v2q0 110 -77.5 187.5t-187.5 77.5q-108 0 -186 -76.5t-79 -185.5v-6v-1v-92v-41l-52 -1
q-34 -3 -57.5 -28.5t-23.5 -59.5v-47v-349v-47q0 -37 26 -63t63 -26h620q36 0 62 25.5t27 61.5zM201 -38v442l-30 -1l30 -83q1 52 18 67.5t71 15.5l-29 1h24q2 -1 4.5 -1t4.5 1h479h-40q50 0 68 -14t20 -59v-291q-1 -45 -16.5 -61.5t-58.5 -17.5zM769 -39h52v71l-4 -69z
M201 45l-4 -89l87 5q-49 0 -65.5 16.5t-17.5 67.5zM557 157v-61q-1 -19 -14.5 -32.5t-32.5 -14.5q-18 1 -32 14.5t-14 32.5v62q-13 9 -22 27.5t-9 33.5q0 33 22.5 55.5t55 22.5t55 -22.5t22.5 -55.5q-1 -15 -10 -33.5t-21 -27.5v-1z" />
    <glyph glyph-name="verification" unicode="&#xe6a1;" 
d="M1024 -128h-85q0 71 -50 121t-121 50t-121 -50t-50 -121h-85v0q0 62 38.5 128t93.5 96q-19 20 -33 54.5t-14 62.5q0 71 50 121t121 50t121 -50t50 -121q0 -28 -14 -62.5t-33 -54.5q55 -30 93.5 -96t38.5 -128v0zM1012 883q12 -12 12 -29v-428q0 -18 -12.5 -30.5
t-30 -12.5t-30 12.5t-12.5 30.5v385h-854v-854h299q18 0 30.5 -12.5t12.5 -29.5q0 -18 -12.5 -30.5t-30.5 -12.5h-342q-17 0 -30 13q-12 12 -12 30v938q0 18 12.5 30.5t30.5 12.5h938q18 0 30 -13h1zM171 683q0 17 12 29.5t29 12.5h258q17 0 29.5 -12.5t12.5 -29.5v0
q0 -18 -12 -30.5t-30 -12.5h-258q-17 0 -29 12.5t-12 30.5v0zM171 512q0 18 12 30.5t30 12.5h171q18 0 30.5 -13t12.5 -30q0 -18 -12.5 -30.5t-30.5 -12.5h-171q-17 1 -29.5 13.5t-12.5 29.5zM171 341q0 18 12 30.5t30 12.5h171q18 0 30.5 -12.5t12.5 -30.5
q0 -17 -12.5 -29.5t-30.5 -12.5h-171q-17 0 -29.5 12.5t-12.5 29.5zM768 128q35 0 60 25t25 60.5t-25 60.5t-60 25t-60 -25t-25 -60.5t25 -60.5t60 -25z" />
    <glyph glyph-name="view" unicode="&#xe6a2;" 
d="M684 286l325 -325q15 -16 15 -37.5t-15 -36.5t-36.5 -15t-36.5 16l-325 324q-42 -32 -109.5 -54.5t-120.5 -22.5q-104 0 -191.5 51t-138.5 138.5t-51 191t51 191t138.5 138.5t191 51t191 -51t138.5 -138.5t51 -191.5q0 -53 -22.5 -120t-54.5 -109v0zM431 465v-89
q0 -21 -15.5 -36t-36.5 -15v0q-22 0 -37 15t-15 36v89h-85q-22 0 -37 15.5t-15 36.5t15 36t37 15h85v86q0 21 15.5 36t36.5 15q22 0 37 -14.5t15 -36.5v-86h88q22 0 37 -15t15 -36v-1q0 -21 -15 -36t-37 -15h-88v0zM378 792q-116 0 -195 -81.5t-79 -197.5q0 -115 79 -194.5
t195 -79.5t197.5 79.5t81.5 194.5q0 116 -81.5 197.5t-197.5 81.5v0z" />
    <glyph glyph-name="upload" unicode="&#xe6a3;" 
d="M375 553q-3 2 -7.5 6t-19.5 12t-31.5 11.5t-40.5 0t-47 -18.5q-21 -13 -35 -32.5t-19.5 -37.5t-7.5 -33.5t-1 -25l1 -9.5q-7 -2 -18 -5t-40 -18.5t-51 -37t-40 -62.5t-18 -91q1 -36 11.5 -66t25.5 -48.5t36 -32t38 -19.5t35.5 -10t25 -4.5t9.5 -0.5v0h267v192h-128
l192 192l192 -192h-128v-192h259q3 0 9 0.5t24 4t34 9t37 18.5t37 30t29.5 45.5t17.5 63.5q4 52 -12.5 94.5t-38 64.5t-50 38.5t-40 20t-18.5 5.5v0v9.5t-0.5 25.5t-3.5 37.5t-9.5 44.5t-16.5 49t-27 47t-39 42.5t-54 32.5t-71 19q-150 16 -235 -113q-24 -36 -33 -66v0z" />
    <glyph glyph-name="upload1" unicode="&#xe6a4;" 
d="M973 308q18 0 34.5 -12.5t16.5 -28.5v-269q0 -17 -12 -28.5t-29 -11.5h-942q-17 0 -29 11.5t-12 28.5v269q0 16 16.5 28.5t34.5 12.5t34.5 -12.5t16.5 -28.5v-198h811v198q0 16 20.5 28.5t39.5 12.5zM311 471q-20 0 -34.5 14.5t-14.5 34.5t14 34l200 243q14 14 34 14
q2 0 3 -1l2 1q20 0 35 -15l199 -242q14 -14 14 -34q0 -21 -14 -35t-34 -15q-21 1 -35 15l-119 144v-367q-1 -19 -15.5 -32t-33.5 -13t-33 13t-16 32v366l-117 -143q-15 -15 -35 -15v0v1z" />
    <glyph glyph-name="user" unicode="&#xe6a5;" 
d="M3 -77q13 133 111.5 259.5t224.5 171.5q-52 37 -89 108.5t-37 134.5q0 124 87.5 211.5t211.5 87.5t211.5 -87.5t87.5 -211.5q0 -63 -37 -134.5t-89 -108.5q128 -46 227 -174.5t110 -264.5q0 -18 -12.5 -30.5t-30 -12.5t-30 12.5t-12.5 30.5h-1q-10 104 -70.5 192.5
t-154.5 140t-199 51.5t-199 -51.5t-154.5 -140t-70.5 -192.5h-1v0q0 -18 -12.5 -30.5t-30 -12.5t-30 12.5t-12.5 30.5q0 4 1 8zM512 384q88 0 150.5 62.5t62.5 151t-62.5 151t-150.5 62.5t-150.5 -62.5t-62.5 -151t62.5 -151t150.5 -62.5z" />
    <glyph glyph-name="warning-o" unicode="&#xe6a6;" 
d="M41 185q-17 39 -29 96.5t-12 100.5v3q0 106 41 199q16 38 48 85.5t61 76.5t76.5 61t85.5 48q39 17 96.5 29t99.5 12h3q107 0 200 -41q38 -16 85.5 -48t77.5 -61q69 -69 109.5 -162t40.5 -199.5t-41 -199.5q-16 -38 -48 -86t-61.5 -77t-77 -61t-85.5 -48
q-39 -17 -96.5 -29t-100.5 -12h-3q-106 0 -199 41q-38 16 -85.5 48t-76.5 61t-61 77t-48 86zM119 218q34 -78 91.5 -135.5t134.5 -91.5q33 -14 80.5 -24t83.5 -10h3q88 0 166 34q32 14 71.5 40.5t63.5 51.5q58 57 92 135t34 166.5t-34 166.5q-14 31 -40.5 70.5t-51 64
t-64 51t-71.5 40.5t-80.5 24t-83.5 10h-2h-3q-35 0 -83 -10t-81 -24q-31 -14 -70.5 -40.5t-64.5 -50.5q-57 -58 -91 -135q-14 -33 -24 -80.5t-10 -83.5v-3q0 -88 34 -166v0zM445 441v201q0 7 7 13q8 5 17 5h1h84h1q9 0 17 -5q7 -5 7 -13v-203l-1 -128q0 -8 -7 -13
q-7 -6 -17 -6v0h-84h-1q-9 0 -17 5q-7 5 -7 13v131zM445 193v1q0 11 7 19t18 8h84q10 0 17.5 -8t7.5 -19v-1v-45v-1q0 -10 -7 -19q-7 -8 -18 -8h-84q-11 0 -18 8q-7 9 -7 19v1v45z" />
    <glyph glyph-name="warning" unicode="&#xe6a7;" 
d="M41 185q16 -38 48 -86t61 -77q69 -69 162 -109q39 -17 96.5 -29t99.5 -12h3q106 0 200 41q38 16 86 48t77 61q69 69 109 163q17 39 29 96.5t12 99.5v4q0 106 -41 199q-16 38 -48 85.5t-61 76.5t-77 61t-86 48q-39 17 -96.5 29t-100.5 12h-3q-106 0 -199 -41
q-38 -16 -85.5 -48t-76.5 -61t-61 -76.5t-48 -85.5q-17 -39 -29 -96.5t-12 -99.5v-3q0 -107 41 -200zM445 441v201q0 7 7 13q8 5 17 5h1h84h1q9 0 17 -5q7 -5 7 -13v-203l-1 -128q0 -8 -7 -13q-7 -6 -17 -6v0h-84h-1q-9 0 -17 5q-7 5 -7 13v131v0zM445 193v1q0 10 7 19
q7 8 18 8h84q10 0 17.5 -8.5t7.5 -18.5v-1v-45v-1q0 -11 -7 -19t-18 -8h-84q-11 0 -18 8t-7 19v1v45z" />
  </font>
</defs>
</svg>
