<?xml version="1.0" encoding="UTF-8" standalone="no"?>
<svg width="20px" height="20px" viewBox="0 0 20 20" version="1.1" xmlns="http://www.w3.org/2000/svg" xmlns:xlink="http://www.w3.org/1999/xlink">
    <g id="Page-1" stroke="none" stroke-width="1" fill="none" fill-rule="evenodd">
        <path d="M6.44717472,14.8900445 C4.57829382,15.6974851 3.16034531,15.8977375 2.71884705,15.2900673 C2.27734879,14.682397 2.90597027,13.3957293 4.25140795,11.8678308 C2.26484981,11.4225634 1,10.7511217 1,10 C1,9.24887829 2.26484981,8.57743663 4.25140795,8.13216922 C2.90597027,6.60427074 2.27734879,5.31760296 2.71884705,4.70993273 C3.16034531,4.1022625 4.57829382,4.30251485 6.44717472,5.10995552 C6.25676897,3.08303127 6.50448785,1.67260073 7.21884705,1.44049135 C7.93320625,1.20838198 8.9626453,2.20383875 10,3.95557261 C11.0373547,2.20383875 12.0667938,1.20838198 12.7811529,1.44049135 C13.4955121,1.67260073 13.743231,3.08303127 13.5528253,5.10995552 C15.4217062,4.30251485 16.8396547,4.1022625 17.2811529,4.70993273 C17.7226512,5.31760296 17.0940297,6.60427074 15.7485921,8.13216922 C17.7351502,8.57743663 19,9.24887829 19,10 C19,10.7511217 17.7351502,11.4225634 15.7485921,11.8678308 C17.0940297,13.3957293 17.7226512,14.682397 17.2811529,15.2900673 C16.8396547,15.8977375 15.4217062,15.6974851 13.5528253,14.8900445 C13.743231,16.9169687 13.4955121,18.3273993 12.7811529,18.5595086 C12.0667938,18.791618 11.0373547,17.7961612 10,16.0444274 C8.9626453,17.7961612 7.93320625,18.791618 7.21884705,18.5595086 C6.50448785,18.3273993 6.25676897,16.9169687 6.44717472,14.8900445 Z M6.86692187,12.2763145 C6.96340073,11.8330775 7.07418445,11.3765138 7.19909819,10.9100682 C6.82387096,10.6061281 6.46588365,10.3018774 6.12730245,10 C5.40730544,10.6419459 4.77506384,11.2731596 4.25140795,11.8678308 C5.02459343,12.0411327 5.9071057,12.180173 6.86692187,12.2763145 Z M13.1330781,7.72368549 C13.0365993,8.16692248 12.9258156,8.62348615 12.8009018,9.08993184 C13.176129,9.39387186 13.5341163,9.69812259 13.8726976,10 C14.5926946,9.35805406 15.2249362,8.72684043 15.7485921,8.13216922 C14.9754066,7.95886732 14.0928943,7.81982704 13.1330781,7.72368549 Z M8.80327064,6.31684576 C7.97025246,5.83046012 7.17455922,5.42421837 6.44717472,5.10995552 C6.52128228,5.89885185 6.66175841,6.7811367 6.86692187,7.72368549 C5.9071057,7.81982704 5.02459343,7.95886732 4.25140795,8.13216922 C4.77506384,8.72684043 5.40730544,9.35805406 6.12730245,10 C6.46588365,9.69812259 6.82387096,9.39387186 7.19909819,9.08993184 C7.27932648,9.38951567 7.36538354,9.69317594 7.45722306,10 C7.53149489,9.75186735 7.60954854,9.50166553 7.69135952,9.24987724 C7.77317049,8.99808894 7.8570887,8.74979263 7.94285025,8.50539322 C7.68820385,8.69963718 7.4400952,8.89472042 7.19909819,9.08993184 C7.07418445,8.62348615 6.96340073,8.16692248 6.86692187,7.72368549 C7.3182789,7.67847458 7.78673081,7.64275023 8.26894748,7.61741061 C8.44206004,7.16662567 8.62079552,6.73214087 8.80327064,6.31684576 Z M12.5427769,10 C12.4685051,10.2481326 12.3904515,10.4983345 12.3086405,10.7501228 C12.2268295,11.0019111 12.1429113,11.2502074 12.0571498,11.4946068 C12.3117961,11.3003628 12.5599048,11.1052796 12.8009018,10.9100682 C12.9258156,11.3765138 13.0365993,11.8330775 13.1330781,12.2763145 C12.6817211,12.3215254 12.2132692,12.3572498 11.7310525,12.3825894 C11.55794,12.8333743 11.3792045,13.2678591 11.1967294,13.6831542 C12.0297475,14.1695399 12.8254408,14.5757816 13.5528253,14.8900445 C13.4787177,14.1011481 13.3382416,13.2188633 13.1330781,12.2763145 C14.0928943,12.180173 14.9754066,12.0411327 15.7485921,11.8678308 C15.2249362,11.2731596 14.5926946,10.6419459 13.8726976,10 C13.5341163,10.3018774 13.176129,10.6061281 12.8009018,10.9100682 C12.7206735,10.6104843 12.6346165,10.3068241 12.5427769,10 Z M6.44717472,14.8900445 C7.17455922,14.5757816 7.97025246,14.1695399 8.80327064,13.6831542 C9.1913062,14.5662843 9.59625264,15.3626375 10,16.0444274 C10.4037474,15.3626375 10.8086938,14.5662843 11.1967294,13.6831542 C10.8049995,13.4544296 10.4050157,13.2079821 10,12.9450424 C10.2601293,12.7761643 10.5223342,12.600483 10.7857613,12.4183246 C10.5268219,12.4243651 10.2647459,12.4274483 10,12.4274483 C9.73525412,12.4274483 9.47317814,12.4243651 9.21423871,12.4183246 C9.0012018,12.2710107 8.78736563,12.1194606 8.57318171,11.9638469 C8.3589978,11.8082332 8.14878613,11.6516944 7.94285025,11.4946068 C7.8570887,11.2502074 7.77317049,11.0019111 7.69135952,10.7501228 C7.60954854,10.4983345 7.53149489,10.2481326 7.45722306,10 C7.36538354,10.3068241 7.27932648,10.6104843 7.19909819,10.9100682 C7.4400952,11.1052796 7.68820385,11.3003628 7.94285025,11.4946068 C8.04889717,11.7968146 8.15776257,12.093064 8.26894748,12.3825894 C8.57866055,12.3988642 8.89405172,12.4108553 9.21423871,12.4183246 C9.47766576,12.600483 9.73987074,12.7761643 10,12.9450424 C9.59498426,13.2079821 9.19500046,13.4544296 8.80327064,13.6831542 C8.62079552,13.2678591 8.44206004,12.8333743 8.26894748,12.3825894 C7.78673081,12.3572498 7.3182789,12.3215254 6.86692187,12.2763145 C6.66175841,13.2188633 6.52128228,14.1011481 6.44717472,14.8900445 Z M13.5528253,5.10995552 C12.8254408,5.42421837 12.0297475,5.83046012 11.1967294,6.31684576 C10.8086938,5.43371571 10.4037474,4.63736248 10,3.95557261 C9.59625264,4.63736248 9.1913062,5.43371571 8.80327064,6.31684576 C9.19500046,6.54557037 9.59498426,6.79201788 10,7.05495755 C9.73987074,7.22383569 9.47766576,7.399517 9.21423871,7.58167542 C9.47317814,7.57563492 9.73525412,7.57255174 10,7.57255174 C10.2647459,7.57255174 10.5268219,7.57563492 10.7857613,7.58167542 C10.9987982,7.72898933 11.2126344,7.88053938 11.4268183,8.03615311 C11.6410022,8.19176683 11.8512139,8.34830557 12.0571498,8.50539322 C12.1429113,8.74979263 12.2268295,8.99808894 12.3086405,9.24987724 C12.3904515,9.50166553 12.4685051,9.75186735 12.5427769,10 C12.6346165,9.69317594 12.7206735,9.38951567 12.8009018,9.08993184 C12.5599048,8.89472042 12.3117961,8.69963718 12.0571498,8.50539322 C11.9511028,8.20318542 11.8422374,7.90693603 11.7310525,7.61741061 C11.4213395,7.60113575 11.1059483,7.5891447 10.7857613,7.58167542 C10.5223342,7.399517 10.2601293,7.22383569 10,7.05495755 C10.4050157,6.79201788 10.8049995,6.54557037 11.1967294,6.31684576 C11.3792045,6.73214087 11.55794,7.16662567 11.7310525,7.61741061 C12.2132692,7.64275023 12.6817211,7.67847458 13.1330781,7.72368549 C13.3382416,6.7811367 13.4787177,5.89885185 13.5528253,5.10995552 Z M11.7310525,12.3825894 C11.8422374,12.093064 11.9511028,11.7968146 12.0571498,11.4946068 C11.8512139,11.6516944 11.6410022,11.8082332 11.4268183,11.9638469 C11.2126344,12.1194606 10.9987982,12.2710107 10.7857613,12.4183246 C11.1059483,12.4108553 11.4213395,12.3988642 11.7310525,12.3825894 Z M8.26894748,7.61741061 C8.15776257,7.90693603 8.04889717,8.20318542 7.94285025,8.50539322 C8.14878613,8.34830557 8.3589978,8.19176683 8.57318171,8.03615311 C8.78736563,7.88053938 9.0012018,7.72898933 9.21423871,7.58167542 C8.89405172,7.5891447 8.57866055,7.60113575 8.26894748,7.61741061 Z" id="Oval" stroke="#979797"></path>
    </g>
</svg>